# Blender 5.0.0
# www.blender.org
mtllib U3D Translation Gizmo.mtl
o Cube
v 36.092415 -0.127152 0.127152
v 36.092415 0.127152 0.127152
v 36.092415 -0.127152 -0.127152
v 36.092415 0.127152 -0.127152
v 29.250000 -2.250000 0.842363
v 29.250000 -0.842362 2.250000
v 29.250000 0.842363 2.250000
v 29.250000 2.250000 0.842362
v 29.250000 -0.842363 -2.250000
v 29.250000 -2.250000 -0.842362
v 29.250000 2.250000 -0.842363
v 29.250000 0.842362 -2.250000
v 29.514328 -0.842362 2.250000
v 29.514328 -2.250000 0.842363
v 31.586452 -1.249890 1.249890
v 29.514328 2.250000 0.842362
v 29.514328 0.842363 2.250000
v 31.586452 1.249890 1.249890
v 29.514328 -2.250000 -0.842362
v 29.514328 -0.842363 -2.250000
v 31.586452 -1.249890 -1.249890
v 29.514328 0.842362 -2.250000
v 29.514328 2.250000 -0.842363
v 31.586452 1.249890 -1.249890
vn 1.0000 -0.0000 -0.0000
vn 0.1982 -0.6931 0.6931
vn 0.1982 0.6931 0.6931
vn 0.1982 -0.6931 -0.6931
vn 0.1982 0.6931 -0.6931
vn -0.0000 -0.7071 -0.7071
vn -0.0000 -0.7071 0.7071
vn -0.0000 0.7071 0.7071
vn -0.0000 0.7071 -0.7071
vn -0.0000 -1.0000 -0.0000
vn -1.0000 -0.0000 -0.0000
vn -0.0000 -0.0000 1.0000
vn -0.0000 1.0000 -0.0000
vn -0.0000 -0.0000 -1.0000
vn 0.2418 -0.0000 0.9703
vn 0.4347 -0.9006 -0.0000
vn 0.4347 0.9006 -0.0000
vn 0.2418 -0.0000 -0.9703
vn 0.4347 -0.0000 -0.9006
vn 0.4347 -0.0000 0.9006
vn 0.2418 0.9703 -0.0000
vn 0.2418 -0.9703 -0.0000
vt 0.507064 0.617936
vt 0.492936 0.632064
vt 0.492936 0.617936
vt 0.379246 0.803300
vt 0.316032 0.693875
vt 0.367600 0.757400
vt 0.678300 0.745754
vt 0.568875 0.808968
vt 0.632400 0.757400
vt 0.316032 0.556125
vt 0.379246 0.446700
vt 0.367600 0.492600
vt 0.568875 0.441032
vt 0.678300 0.504246
vt 0.632400 0.492600
vt 0.125000 0.578202
vt 0.125000 0.500000
vt 0.125000 0.750000
vt 0.625000 1.000000
vt 0.546798 0.250000
vt 0.125000 0.671798
vt 0.625000 0.078202
vt 0.375000 0.171798
vt 0.453202 1.000000
vt 0.875000 0.671798
vt 0.453202 0.250000
vt 0.507064 0.632064
vt 0.546798 1.000000
vt 0.625000 0.210899
vt 0.375000 0.078202
vt 0.453202 0.000000
vt 0.546798 0.000000
vt 0.875000 0.578202
s 1
f 4/1/1 1/2/1 3/3/1
f 13/4/2 14/5/2 15/6/2
f 16/7/3 17/8/3 18/9/3
f 19/10/4 20/11/4 21/12/4
f 22/13/5 23/14/5 24/15/5
f 20/11/6 10/16/6 9/17/6
f 6/18/7 14/5/7 13/4/7
f 8/19/8 17/8/8 16/7/8
f 12/20/9 23/14/9 22/13/9
f 10/16/10 14/5/10 5/21/10
f 8/22/11 12/20/11 10/23/11
f 17/8/12 6/24/12 13/4/12
f 23/14/13 8/25/13 16/7/13
f 12/20/14 20/11/14 9/26/14
f 15/6/15 2/27/15 18/9/15
f 14/5/16 21/12/16 15/6/16
f 23/14/17 18/9/17 24/15/17
f 3/3/18 24/15/18 4/1/18
f 21/12/19 22/13/19 24/15/19
f 18/9/20 13/4/20 15/6/20
f 2/27/21 24/15/21 18/9/21
f 3/3/22 15/6/22 21/12/22
f 4/1/1 2/27/1 1/2/1
f 20/11/6 19/10/6 10/16/6
f 6/18/7 5/21/7 14/5/7
f 8/19/8 7/28/8 17/8/8
f 12/20/9 11/29/9 23/14/9
f 10/16/10 19/10/10 14/5/10
f 10/23/11 5/30/11 6/31/11
f 6/31/11 7/32/11 8/22/11
f 8/22/11 11/29/11 12/20/11
f 12/20/11 9/26/11 10/23/11
f 10/23/11 6/31/11 8/22/11
f 17/8/12 7/28/12 6/24/12
f 23/14/13 11/33/13 8/25/13
f 12/20/14 22/13/14 20/11/14
f 15/6/15 1/2/15 2/27/15
f 14/5/16 19/10/16 21/12/16
f 23/14/17 16/7/17 18/9/17
f 3/3/18 21/12/18 24/15/18
f 21/12/19 20/11/19 22/13/19
f 18/9/20 17/8/20 13/4/20
f 2/27/21 4/1/21 24/15/21
f 3/3/22 1/2/22 15/6/22
o Cube.001
v 0.000000 -0.500000 0.500000
v 0.000000 0.500000 0.500000
v 0.000000 -0.500000 -0.500000
v 0.000000 0.500000 -0.500000
v 30.000000 -0.500000 0.500000
v 30.000000 0.500000 0.500000
v 30.000000 -0.500000 -0.500000
v 30.000000 0.500000 -0.500000
vn -1.0000 -0.0000 -0.0000
vn -0.0000 -0.0000 -1.0000
vn 1.0000 -0.0000 -0.0000
vn -0.0000 -0.0000 1.0000
vn -0.0000 -1.0000 -0.0000
vn -0.0000 1.0000 -0.0000
vt 0.625000 0.000000
vt 0.375000 0.250000
vt 0.375000 0.000000
vt 0.625000 0.250000
vt 0.375000 0.500000
vt 0.625000 0.500000
vt 0.375000 0.750000
vt 0.625000 0.750000
vt 0.375000 1.000000
vt 0.125000 0.750000
vt 0.125000 0.500000
vt 0.875000 0.500000
vt 0.625000 1.000000
vt 0.875000 0.750000
s 1
f 26/34/23 27/35/23 25/36/23
f 28/37/24 31/38/24 27/35/24
f 32/39/25 29/40/25 31/38/25
f 30/41/26 25/42/26 29/40/26
f 31/38/27 25/43/27 27/44/27
f 28/45/28 30/41/28 32/39/28
f 26/34/23 28/37/23 27/35/23
f 28/37/24 32/39/24 31/38/24
f 32/39/25 30/41/25 29/40/25
f 30/41/26 26/46/26 25/42/26
f 31/38/27 29/40/27 25/43/27
f 28/45/28 26/47/28 30/41/28
